<svg width="37" height="32" viewBox="0 0 37 32" fill="none" xmlns="http://www.w3.org/2000/svg">
<g clip-path="url(#clip0_356_389)">
<path d="M28.3281 0H8.67188C3.88253 0 0 3.35786 0 7.5V24.5C0 28.6421 3.88253 32 8.67188 32H28.3281C33.1175 32 37 28.6421 37 24.5V7.5C37 3.35786 33.1175 0 28.3281 0Z" fill="#F4F2ED"/>
<path d="M6.0177 25.3813H10.6164V15.7222L4.04688 11.4609V23.6768C4.04688 24.6199 4.93054 25.3813 6.0177 25.3813Z" fill="#4285F4"/>
<path d="M26.3834 25.3814H30.9823C32.0728 25.3814 32.9531 24.6172 32.9531 23.6769V11.4609L26.3834 15.7223" fill="#34A853"/>
<path d="M26.3834 8.33447V15.7208L32.9531 11.4596V9.1866C32.9531 7.07872 30.1709 5.87697 28.223 7.14122" fill="#FBBC04"/>
<path d="M10.6166 15.7224V8.33619L18.5 13.4496L26.3835 8.33594V15.7223L18.5 20.8361" fill="#EA4335"/>
<path d="M4.04688 9.1866V11.4593L10.6164 15.7207V8.33447L8.77695 7.14122C6.82578 5.87697 4.04688 7.07872 4.04688 9.1866Z" fill="#C5221F"/>
</g>
<defs>
<clipPath id="clip0_356_389">
<rect width="37" height="32" fill="white"/>
</clipPath>
</defs>
</svg>
