<svg width="29" height="25" viewBox="0 0 29 25" fill="none" xmlns="http://www.w3.org/2000/svg">
<path d="M11.3553 2.39638C12.1542 1.79826 12.5543 1.49859 12.9723 1.32338C13.4494 1.12335 13.9713 1.01953 14.5 1.01953C15.0286 1.01953 15.5505 1.12335 16.0276 1.32338C16.4456 1.49859 16.8457 1.79826 17.6446 2.39638C18.4682 3.01263 19.3042 3.32438 20.4042 3.40051C21.4506 3.47422 21.9744 3.51168 22.4117 3.64701C23.4209 3.96118 24.2157 4.65838 24.5718 5.54651C24.7258 5.92955 24.7684 6.38993 24.8523 7.31068C24.9389 8.27734 25.2923 9.0108 25.9936 9.73459C26.6756 10.4366 27.0166 10.7883 27.2159 11.1556C27.6779 12.0051 27.6779 12.9923 27.2159 13.8405C27.0166 14.2078 26.6756 14.5595 25.9949 15.2615C25.3136 15.9334 24.9109 16.7881 24.8523 17.6866C24.7684 18.6062 24.7258 19.0666 24.5718 19.4508C24.3953 19.8888 24.1096 20.2865 23.7356 20.615C23.3616 20.9434 22.9088 21.1942 22.4103 21.3491C21.9745 21.4844 21.4506 21.5219 20.4028 21.5956C19.3028 21.6717 18.4682 21.9823 17.6446 22.5985C16.8457 23.1978 16.4456 23.4975 16.0276 23.6727C15.5505 23.8728 15.0286 23.9766 14.5 23.9766C13.9713 23.9766 13.4494 23.8728 12.9723 23.6727C12.5543 23.4975 12.1542 23.1978 11.3553 22.5997C10.5908 22.0009 9.61816 21.647 8.5957 21.5956C7.54933 21.5219 7.02545 21.4844 6.5882 21.3491C6.08982 21.194 5.63721 20.9429 5.26347 20.6142C4.88972 20.2856 4.6043 19.8877 4.42808 19.4496C4.27408 19.0666 4.23145 18.6062 4.14758 17.6854C4.08912 16.7875 3.68693 15.9332 3.00633 15.2615C2.32433 14.5595 1.98333 14.2078 1.78258 13.8405C1.55516 13.4212 1.43726 12.9624 1.4375 12.4979C1.43774 12.0334 1.55611 11.5748 1.78395 11.1556C1.98333 10.7883 2.32433 10.4366 3.00495 9.73459C3.71995 8.9963 4.06233 8.2568 4.14758 7.30947C4.23145 6.38993 4.27408 5.92955 4.42808 5.5453C4.60462 5.10733 4.89033 4.70958 5.26431 4.38114C5.63829 4.0527 6.09109 3.80187 6.58958 3.64701C7.02545 3.51168 7.54933 3.47422 8.59708 3.40051C9.61889 3.34914 10.5909 2.99449 11.3553 2.39638Z" stroke="white" stroke-width="1.5" stroke-linecap="round" stroke-linejoin="round"/>
</svg>
